<svg width="24" height="24" viewBox="0 0 24 24" fill="none" xmlns="http://www.w3.org/2000/svg">
<path d="M17.1426 10.6001H8.91962L10.8918 8.54116C11.0532 8.37185 11.1439 8.14222 11.1439 7.90279C11.1439 7.66335 11.0532 7.43373 10.8918 7.26442C10.7303 7.09511 10.5113 7 10.283 7C10.0546 7 9.83564 7.09511 9.67418 7.26442L6.24438 10.8609C6.16632 10.9464 6.10513 11.0472 6.06432 11.1576C5.97856 11.3765 5.97856 11.622 6.06432 11.8409C6.10513 11.9513 6.16632 12.0521 6.24438 12.1376L9.67418 15.734C9.75389 15.8183 9.84872 15.8852 9.95321 15.9309C10.0577 15.9765 10.1698 16 10.283 16C10.3962 16 10.5082 15.9765 10.6127 15.9309C10.7172 15.8852 10.812 15.8183 10.8918 15.734C10.9721 15.6505 11.0359 15.551 11.0794 15.4415C11.123 15.3319 11.1454 15.2144 11.1454 15.0957C11.1454 14.977 11.123 14.8595 11.0794 14.7499C11.0359 14.6403 10.9721 14.5409 10.8918 14.4573L8.91962 12.3983H17.1426C17.37 12.3983 17.5881 12.3036 17.7489 12.135C17.9097 11.9664 18 11.7377 18 11.4992C18 11.2608 17.9097 11.0321 17.7489 10.8635C17.5881 10.6948 17.37 10.6001 17.1426 10.6001Z" fill="#99CCFF"/>
</svg>
