<svg width="12" height="12" viewBox="0 0 12 12" fill="none" xmlns="http://www.w3.org/2000/svg">
<path d="M1.05138 1.05011C0.863911 1.23764 0.758596 1.49195 0.758596 1.75711C0.758596 2.02227 0.863911 2.27658 1.05138 2.46411L4.58738 6.00011L1.05138 9.53611C0.955872 9.62836 0.87969 9.7387 0.827281 9.86071C0.774872 9.98271 0.747285 10.1139 0.746132 10.2467C0.744978 10.3795 0.770279 10.5112 0.82056 10.6341C0.870841 10.757 0.945094 10.8686 1.03899 10.9625C1.13288 11.0564 1.24453 11.1307 1.36743 11.1809C1.49032 11.2312 1.622 11.2565 1.75478 11.2554C1.88756 11.2542 2.01878 11.2266 2.14079 11.1742C2.26279 11.1218 2.37313 11.0456 2.46538 10.9501L6.00138 7.41411L9.53738 10.9501C9.72598 11.1323 9.97859 11.2331 10.2408 11.2308C10.503 11.2285 10.7538 11.1233 10.9392 10.9379C11.1246 10.7525 11.2298 10.5017 11.2321 10.2395C11.2343 9.97731 11.1335 9.72471 10.9514 9.53611L7.41538 6.00011L10.9514 2.46411C11.1335 2.27551 11.2343 2.02291 11.2321 1.76071C11.2298 1.49851 11.1246 1.2477 10.9392 1.06229C10.7538 0.876884 10.503 0.771715 10.2408 0.769436C9.97859 0.767158 9.72598 0.867953 9.53738 1.05011L6.00138 4.58611L2.46538 1.05011C2.27785 0.86264 2.02355 0.757324 1.75838 0.757324C1.49322 0.757324 1.23891 0.86264 1.05138 1.05011Z" fill="#9DB2CE"/>
</svg>
