<svg width="21" height="21" viewBox="0 0 21 21" fill="none" xmlns="http://www.w3.org/2000/svg">
<g clip-path="url(#clip0_2_7815)">
<path d="M17.3971 9.12484L17.5221 9.70817C17.5221 9.70817 12.9805 11.3332 10.7721 11.7915C8.27214 12.3332 4.27214 12.6665 2.98047 12.8748C2.3138 12.9582 1.64714 12.6248 1.35547 12.0415L1.10547 11.7082L17.2721 8.5415L17.3971 9.12484Z" fill="#DEBB7E" stroke="#45413C" stroke-width="0.5" stroke-miterlimit="10" stroke-linecap="round" stroke-linejoin="round"/>
<path d="M17.3972 9.12498L17.1889 8.12498C16.8972 6.58332 13.4389 4.74998 9.27224 5.16665C9.27224 5.16665 8.48057 3.74998 9.6889 3.24998C10.8972 2.74998 19.6472 1.08332 19.9806 7.74998C20.0222 8.24998 19.6472 8.70832 19.1472 8.79165L17.3972 9.12498Z" fill="#F0D5A8"/>
<path d="M9.72902 3.24961C8.93735 3.58294 8.97902 4.29127 9.14568 4.74961C9.27068 4.62461 9.39568 4.49961 9.64568 4.41627C10.8124 3.95794 19.104 2.37461 19.8957 8.37461C20.0207 8.20794 20.0624 7.99961 20.0624 7.79127C19.6874 1.08294 10.9374 2.74961 9.72902 3.24961Z" fill="#F7E5C6"/>
<path d="M17.3991 9.12502L19.1908 8.79168C19.6908 8.70835 20.0658 8.25002 20.0241 7.75002C19.9824 7.12502 19.8991 6.58335 19.7324 6.08335C19.3991 5.95835 19.0241 5.95835 18.6491 6.00002C17.6908 6.16668 16.9824 6.95835 17.1491 7.70835L17.1074 7.75002C17.1491 7.87502 17.1908 7.95835 17.2324 8.08335L17.3991 9.12502Z" fill="#DEBB7E"/>
<path d="M17.3972 9.12498L17.1889 8.12498C16.8972 6.58332 13.4389 4.74998 9.27224 5.16665C9.27224 5.16665 8.48057 3.74998 9.6889 3.24998C10.8972 2.74998 19.6472 1.08332 19.9806 7.74998C20.0222 8.24998 19.6472 8.70832 19.1472 8.79165L17.3972 9.12498Z" stroke="#45413C" stroke-width="0.5" stroke-miterlimit="10" stroke-linecap="round" stroke-linejoin="round"/>
<path d="M19.6878 6.08335C19.3545 5.95835 18.9795 5.95835 18.6045 6.00002C17.6461 6.16668 16.9378 6.95835 17.1045 7.70835" stroke="#45413C" stroke-width="0.5" stroke-miterlimit="10" stroke-linecap="round" stroke-linejoin="round"/>
<path d="M17.1035 7.62549L17.1868 8.12549" stroke="#45413C" stroke-miterlimit="10" stroke-linecap="round" stroke-linejoin="round"/>
<path d="M9.31335 5.167L1.27169 11.0003C1.10502 11.1253 1.02169 11.3337 1.06335 11.5003L1.10502 11.7087L1.31335 12.7087C1.35502 13.0003 1.64669 13.167 1.89669 13.1253C2.18835 13.0837 2.35502 12.792 2.31335 12.542L2.23002 12.042L3.73002 11.7087L3.85502 12.4587C3.93835 12.8753 4.35502 13.167 4.77169 13.0837C5.18835 13.0003 5.48002 12.5837 5.39669 12.167L5.27169 11.417L12.355 10.0837L12.4384 10.5837C12.48 10.8753 12.7717 11.042 13.0217 11.0003C13.3134 10.9587 13.48 10.667 13.4384 10.417L13.355 9.917L15.8967 9.45867L16.0217 10.2087C16.105 10.6253 16.5217 10.917 16.9384 10.8337C17.355 10.7503 17.6467 10.3337 17.5634 9.917L17.23 8.12533C16.8967 6.58367 13.4384 4.75033 9.31335 5.167Z" fill="#FFBA08"/>
<path d="M15.8542 9.41667L15.9792 10.1667C16.0625 10.5833 16.4792 10.875 16.8958 10.7917C17.3125 10.7083 17.6042 10.2917 17.5208 9.87501L17.1875 8.08334C16.8958 6.54167 13.4375 4.70834 9.27083 5.12501L8.8125 5.45834C12.2292 5.58334 14.8958 7.12501 15.1458 8.45834L15.3542 9.45834L15.8542 9.41667Z" fill="#DFA206"/>
<path d="M3.27344 10.7505L15.9401 8.37549" stroke="#DFA206" stroke-miterlimit="10" stroke-linecap="round" stroke-linejoin="round"/>
<path d="M13.3555 9.91716L13.2305 9.37549" stroke="#45413C" stroke-width="0.5" stroke-miterlimit="10" stroke-linecap="round" stroke-linejoin="round"/>
<path d="M15.8542 9.4165L15.6875 8.4165" stroke="#45413C" stroke-width="0.5" stroke-miterlimit="10" stroke-linecap="round" stroke-linejoin="round"/>
<path d="M9.31335 5.167L1.27169 11.0003C1.10502 11.1253 1.02169 11.3337 1.06335 11.5003L1.10502 11.7087L1.31335 12.7087C1.35502 13.0003 1.64669 13.167 1.89669 13.1253C2.18835 13.0837 2.35502 12.792 2.31335 12.542L2.23002 12.042L3.73002 11.7087L3.85502 12.4587C3.93835 12.8753 4.35502 13.167 4.77169 13.0837C5.18835 13.0003 5.48002 12.5837 5.39669 12.167L5.27169 11.417L12.355 10.0837L12.4384 10.5837C12.48 10.8753 12.7717 11.042 13.0217 11.0003C13.3134 10.9587 13.48 10.667 13.4384 10.417L13.355 9.917L15.8967 9.45867L16.0217 10.2087C16.105 10.6253 16.5217 10.917 16.9384 10.8337C17.355 10.7503 17.6467 10.3337 17.5634 9.917L17.23 8.12533C16.8967 6.58367 13.4384 4.75033 9.31335 5.167Z" stroke="#45413C" stroke-width="0.5" stroke-miterlimit="10" stroke-linecap="round" stroke-linejoin="round"/>
<path d="M3.73047 11.7085L3.60547 11.2085" stroke="#45413C" stroke-miterlimit="10" stroke-linecap="round" stroke-linejoin="round"/>
<path d="M8.1888 7.70817C9.14714 7.5415 9.85547 6.9165 9.77214 6.37484C9.6888 5.95817 9.23047 5.70817 8.60547 5.6665L6.35547 7.2915C6.64714 7.70817 7.39714 7.87484 8.1888 7.70817Z" fill="#FF6242" stroke="#45413C" stroke-width="0.5" stroke-miterlimit="10" stroke-linecap="round" stroke-linejoin="round"/>
<path d="M14.9383 8.54106C15.0633 8.37439 15.105 8.16606 15.105 7.99939C14.98 7.45773 14.105 7.12439 13.1466 7.33273C12.1883 7.49939 11.48 8.12439 11.5633 8.66606C11.605 8.83273 11.73 8.99939 11.8966 9.12439L14.9383 8.54106Z" fill="#FF6242" stroke="#45413C" stroke-width="0.5" stroke-miterlimit="10" stroke-linecap="round" stroke-linejoin="round"/>
<path d="M4.81315 10.4585C4.93815 10.2918 4.97982 10.0835 4.97982 9.91683C4.89648 9.50016 4.39648 9.25016 3.77148 9.2085L1.52148 10.8335C1.56315 10.9168 1.64648 11.0002 1.77148 11.0418L4.81315 10.4585Z" fill="#FF6242" stroke="#45413C" stroke-width="0.5" stroke-miterlimit="10" stroke-linecap="round" stroke-linejoin="round"/>
<path d="M10.5638 9.37469C10.2721 8.83302 9.35547 8.54136 8.39714 8.74969C7.4388 8.95802 6.6888 9.54136 6.60547 10.1247L10.5638 9.37469Z" fill="#FF6242" stroke="#45413C" stroke-width="0.5" stroke-miterlimit="10" stroke-linecap="round" stroke-linejoin="round"/>
</g>
<defs>
<clipPath id="clip0_2_7815">
<rect width="20" height="20" fill="white" transform="translate(0.441406 0.953613)"/>
</clipPath>
</defs>
</svg>
