<svg width="21" height="21" viewBox="0 0 21 21" fill="none" xmlns="http://www.w3.org/2000/svg">
<path d="M17.0723 3H3.9814C3.17922 3 2.52686 3.65236 2.52686 4.45455V17.5455C2.52686 18.3476 3.17922 19 3.9814 19H17.0723C17.8745 19 18.5269 18.3476 18.5269 17.5455V4.45455C18.5269 3.65236 17.8745 3 17.0723 3Z" fill="#303C42"/>
<path d="M17.8028 17.5457C17.8028 17.9464 17.4762 18.273 17.0755 18.273H3.9846C3.58387 18.273 3.25732 17.9464 3.25732 17.5457V4.45481C3.25732 4.05408 3.58387 3.72754 3.9846 3.72754H17.0755C17.4762 3.72754 17.8028 4.05408 17.8028 4.45481V17.5457Z" fill="#FFBA08"/>
<path d="M10.5297 5.90918C8.92533 5.90918 7.62061 7.21391 7.62061 8.81827V9.18191C7.62061 9.27835 7.65892 9.37084 7.72711 9.43904C7.79531 9.50723 7.8878 9.54554 7.98424 9.54554H9.43879C9.53523 9.54554 9.62772 9.50723 9.69592 9.43904C9.76411 9.37084 9.80242 9.27835 9.80242 9.18191V8.81827C9.80242 8.41754 10.129 8.091 10.5297 8.091C10.9304 8.091 11.257 8.41754 11.257 8.81827V9.65754C11.257 9.803 11.1697 9.93318 11.0337 9.987C10.5618 10.174 10.1572 10.4988 9.87274 10.9191C9.58824 11.3395 9.43701 11.8358 9.43879 12.3434V12.8183C9.43879 12.9147 9.4771 13.0072 9.54529 13.0754C9.61349 13.1436 9.70598 13.1819 9.80242 13.1819H11.257C11.3534 13.1819 11.4459 13.1436 11.5141 13.0754C11.5823 13.0072 11.6206 12.9147 11.6206 12.8183V12.3426C11.6206 12.1972 11.7079 12.067 11.8439 12.0132C12.3158 11.8262 12.7203 11.5014 13.0048 11.081C13.2893 10.6607 13.4406 10.1644 13.4388 9.65682V8.81827C13.4388 7.21391 12.1341 5.90918 10.5297 5.90918Z" fill="#303C42"/>
<path d="M12.7108 9.65781C12.7108 10.4018 12.2643 11.0614 11.5733 11.3378C11.3719 11.4174 11.1992 11.5559 11.0778 11.7352C10.9563 11.9146 10.8918 12.1263 10.8926 12.3429V12.4549H10.1653V12.3429C10.1653 11.5989 10.6119 10.9393 11.3028 10.6629C11.5042 10.5833 11.6769 10.4448 11.7984 10.2655C11.9198 10.0862 11.9844 9.87438 11.9835 9.65781V8.81854C11.9835 8.01636 11.3312 7.36399 10.529 7.36399C9.7268 7.36399 9.07444 8.01636 9.07444 8.81854H8.34717C8.34717 7.61563 9.32608 6.63672 10.529 6.63672C11.7319 6.63672 12.7108 7.61563 12.7108 8.81854V9.65781Z" fill="#FFF176"/>
<path d="M11.2552 13.9092H9.80065C9.70421 13.9092 9.61171 13.9475 9.54352 14.0157C9.47532 14.0839 9.43701 14.1764 9.43701 14.2728V15.7274C9.43701 15.8238 9.47532 15.9163 9.54352 15.9845C9.61171 16.0527 9.70421 16.091 9.80065 16.091H11.2552C11.3516 16.091 11.4441 16.0527 11.5123 15.9845C11.5805 15.9163 11.6188 15.8238 11.6188 15.7274V14.2728C11.6188 14.1764 11.5805 14.0839 11.5123 14.0157C11.4441 13.9475 11.3516 13.9092 11.2552 13.9092Z" fill="#303C42"/>
<path d="M10.1636 14.6367H10.8908V15.364H10.1636V14.6367Z" fill="#FFF176"/>
<path d="M4.71116 5.90962C5.11282 5.90962 5.43843 5.58401 5.43843 5.18235C5.43843 4.78069 5.11282 4.45508 4.71116 4.45508C4.3095 4.45508 3.98389 4.78069 3.98389 5.18235C3.98389 5.58401 4.3095 5.90962 4.71116 5.90962Z" fill="#303C42"/>
<path d="M16.344 5.90962C16.7456 5.90962 17.0712 5.58401 17.0712 5.18235C17.0712 4.78069 16.7456 4.45508 16.344 4.45508C15.9423 4.45508 15.6167 4.78069 15.6167 5.18235C15.6167 5.58401 15.9423 5.90962 16.344 5.90962Z" fill="#303C42"/>
<path d="M12.4493 6.63672L12.4398 6.64254C12.4667 6.66654 12.498 6.68617 12.5242 6.71163L12.4485 6.63672H12.4493ZM12.6362 6.82363C13.15 7.36081 13.4372 8.07519 13.4383 8.81854V9.65781C13.4383 10.7014 12.8129 11.6258 11.8434 12.0142C11.7776 12.0403 11.721 12.0856 11.6812 12.1442C11.6414 12.2028 11.6201 12.272 11.6202 12.3429V12.8185C11.6202 12.915 11.5819 13.0075 11.5137 13.0757C11.4455 13.1439 11.353 13.1822 11.2565 13.1822H9.80198C9.73082 13.1803 9.66188 13.1569 9.60416 13.1153L10.3976 13.9094H11.2565C11.353 13.9094 11.4455 13.9478 11.5137 14.016C11.5819 14.0841 11.6202 14.1766 11.6202 14.2731V15.7276C11.6202 15.8241 11.5819 15.9166 11.5137 15.9848C11.4455 16.053 11.353 16.0913 11.2565 16.0913H9.80198C9.73358 16.0896 9.66714 16.0681 9.61071 16.0294L11.8543 18.2731H17.0747C17.4754 18.2731 17.802 17.9465 17.802 17.5458V11.9894L12.6362 6.82363ZM11.0333 9.98726C11.0992 9.96112 11.1558 9.91571 11.1957 9.85695C11.2355 9.79819 11.2567 9.72879 11.2565 9.65781V8.81854C11.2565 8.41781 10.93 8.09126 10.5293 8.09126C10.1285 8.09126 9.80198 8.41781 9.80198 8.81854V9.18217C9.80198 9.27862 9.76367 9.37111 9.69547 9.4393C9.62728 9.5075 9.53479 9.54581 9.43834 9.54581H7.9838C7.88881 9.54584 7.79764 9.50848 7.72998 9.44181L9.64271 11.3545C9.77203 11.0457 9.96161 10.7657 10.2004 10.5309C10.4391 10.2962 10.7223 10.1114 11.0333 9.98726Z" fill="url(#paint0_linear_2_8254)"/>
<path d="M4.71116 17.5454C5.11282 17.5454 5.43843 17.2198 5.43843 16.8181C5.43843 16.4164 5.11282 16.0908 4.71116 16.0908C4.3095 16.0908 3.98389 16.4164 3.98389 16.8181C3.98389 17.2198 4.3095 17.5454 4.71116 17.5454Z" fill="#303C42"/>
<path d="M16.344 17.5454C16.7456 17.5454 17.0712 17.2198 17.0712 16.8181C17.0712 16.4164 16.7456 16.0908 16.344 16.0908C15.9423 16.0908 15.6167 16.4164 15.6167 16.8181C15.6167 17.2198 15.9423 17.5454 16.344 17.5454Z" fill="#303C42"/>
<path d="M17.0723 3H3.9814C3.17922 3 2.52686 3.65236 2.52686 4.45455V17.5455C2.52686 18.3476 3.17922 19 3.9814 19H17.0723C17.8745 19 18.5269 18.3476 18.5269 17.5455V4.45455C18.5269 3.65236 17.8745 3 17.0723 3Z" fill="url(#paint1_linear_2_8254)"/>
<defs>
<linearGradient id="paint0_linear_2_8254" x1="8.43398" y1="8.73781" x2="17.6725" y2="17.9756" gradientUnits="userSpaceOnUse">
<stop stop-opacity="0.1"/>
<stop offset="1" stop-opacity="0"/>
</linearGradient>
<linearGradient id="paint1_linear_2_8254" x1="1.3254" y1="6.70909" x2="19.7283" y2="15.2909" gradientUnits="userSpaceOnUse">
<stop stop-color="white" stop-opacity="0.2"/>
<stop offset="1" stop-color="white" stop-opacity="0"/>
</linearGradient>
</defs>
</svg>
