<svg width="21" height="21" viewBox="0 0 21 21" fill="none" xmlns="http://www.w3.org/2000/svg">
<g clip-path="url(#clip0_58_2302)">
<path d="M6.15967 7.87134H7.95133V17.163H6.15967V7.87134Z" fill="#DEBB7E"/>
<path d="M6.15967 14.3297C6.32633 14.413 6.493 14.4547 6.70133 14.4547C7.20133 14.4547 7.65967 14.1213 7.868 13.7047C7.90967 13.7047 7.95133 13.7047 7.95133 13.7463V7.87134H6.15967V14.3297Z" fill="#B89558"/>
<path d="M6.15967 7.87134H7.95133V17.163H6.15967V7.87134Z" stroke="#45413C" stroke-width="0.5" stroke-miterlimit="10" stroke-linecap="round" stroke-linejoin="round"/>
<path d="M7.03402 3.78735C4.74235 3.78735 2.86735 5.57902 2.70068 7.82902C1.65902 8.24569 0.950684 9.24569 0.950684 10.4124C0.950684 11.954 2.20068 13.1624 3.70068 13.1624C4.49235 13.1624 5.20068 12.829 5.70068 12.2874C6.11735 12.4124 6.57568 12.4957 7.03402 12.4957C9.45068 12.4957 11.3674 10.5374 11.3674 8.16235C11.3674 5.78735 9.45068 3.78735 7.03402 3.78735Z" fill="#FFBA08"/>
<path d="M2.70068 8.99601C2.86735 6.74601 4.74235 4.95435 7.03402 4.95435C9.24235 4.95435 11.0757 6.57935 11.3257 8.74601C11.3674 8.53768 11.3674 8.37101 11.3674 8.16268C11.3674 5.74601 9.40902 3.82935 7.03402 3.82935C4.74235 3.82935 2.86735 5.62101 2.70068 7.87101C1.65902 8.28768 0.950684 9.28768 0.950684 10.4543C0.950684 10.6627 0.99235 10.871 1.03402 11.0377C1.20068 10.0793 1.82568 9.32935 2.70068 8.99601Z" fill="#DFA206"/>
<path d="M7.03402 3.78735C4.74235 3.78735 2.86735 5.57902 2.70068 7.82902C1.65902 8.24569 0.950684 9.24569 0.950684 10.4124C0.950684 11.954 2.20068 13.1624 3.70068 13.1624C4.49235 13.1624 5.20068 12.829 5.70068 12.2874C6.11735 12.4124 6.57568 12.4957 7.03402 12.4957C9.45068 12.4957 11.3674 10.5374 11.3674 8.16235C11.3674 5.78735 9.45068 3.78735 7.03402 3.78735Z" stroke="#45413C" stroke-width="0.5" stroke-miterlimit="10" stroke-linecap="round" stroke-linejoin="round"/>
<path d="M7.03315 10.0797L11.8665 7.24634C12.0748 7.12134 12.3665 7.12134 12.5748 7.24634L17.4498 10.0797C17.7415 10.2463 17.8248 10.5797 17.6998 10.8713C17.5331 11.2047 17.1581 11.3297 16.8248 11.1213L12.2415 8.45467L7.65815 11.1213C7.32481 11.288 6.94981 11.163 6.78315 10.8713C6.61648 10.5797 6.74148 10.2463 7.03315 10.0797Z" fill="#FF6242"/>
<path d="M6.82659 10.9547C6.86826 10.8713 6.95159 10.8297 7.03493 10.788L11.8683 7.95467C12.0766 7.82967 12.3683 7.82967 12.5766 7.95467L17.4516 10.788C17.5349 10.8297 17.6183 10.913 17.6599 10.9547C17.6599 10.913 17.7016 10.913 17.7016 10.8713C17.8266 10.5797 17.7433 10.2463 17.4516 10.0797L12.5766 7.24634C12.3683 7.12134 12.0766 7.12134 11.8683 7.24634L6.99326 10.0797C6.7016 10.2463 6.61826 10.5797 6.74326 10.8713C6.78493 10.913 6.78493 10.9547 6.82659 10.9547Z" fill="#FF866E"/>
<path d="M7.03315 10.0797L11.8665 7.24634C12.0748 7.12134 12.3665 7.12134 12.5748 7.24634L17.4498 10.0797C17.7415 10.2463 17.8248 10.5797 17.6998 10.8713C17.5331 11.2047 17.1581 11.3297 16.8248 11.1213L12.2415 8.45467L7.65815 11.1213C7.32481 11.288 6.94981 11.163 6.78315 10.8713C6.61648 10.5797 6.74148 10.2463 7.03315 10.0797Z" stroke="#45413C" stroke-width="0.5" stroke-miterlimit="10" stroke-linecap="round" stroke-linejoin="round"/>
<path opacity="0.15" d="M11.5347 18.1213C16.3672 18.1213 20.2847 17.8415 20.2847 17.4963C20.2847 17.1512 16.3672 16.8713 11.5347 16.8713C6.70218 16.8713 2.78467 17.1512 2.78467 17.4963C2.78467 17.8415 6.70218 18.1213 11.5347 18.1213Z" fill="#45413C"/>
<path d="M16.534 17.1627H7.95068V10.9543L12.2423 8.45435L16.534 10.9543V17.1627Z" fill="#FFFACF"/>
<path d="M12.2423 8.45435L7.95068 10.9543V11.9543L12.2423 9.45435L16.534 11.9543V10.9543L12.2423 8.45435Z" fill="#FFF48C"/>
<path d="M16.534 17.1627H7.95068V10.9543L12.2423 8.45435L16.534 10.9543V17.1627Z" stroke="#45413C" stroke-width="0.5" stroke-miterlimit="10" stroke-linecap="round" stroke-linejoin="round"/>
<path d="M12.7847 17.163H8.65967V16.6213C8.65967 16.413 8.82634 16.2463 9.03467 16.2463H12.4513C12.6597 16.2463 12.8263 16.413 12.8263 16.6213V17.163H12.7847Z" fill="#E0E0E0" stroke="#45413C" stroke-width="0.5" stroke-miterlimit="10" stroke-linecap="round" stroke-linejoin="round"/>
<path d="M11.909 11.9543H9.57568C9.36735 11.9543 9.20068 12.121 9.20068 12.3293V16.246H12.2423V12.3293C12.2423 12.121 12.0757 11.9543 11.909 11.9543Z" fill="#BF8256"/>
<path d="M11.909 11.9543H9.57568C9.36735 11.9543 9.20068 12.121 9.20068 12.3293V13.0377C9.20068 12.8293 9.36735 12.6627 9.57568 12.6627H11.909C12.1174 12.6627 12.284 12.8293 12.284 13.0377V12.3293C12.2424 12.121 12.0757 11.9543 11.909 11.9543Z" fill="#915E3A"/>
<path d="M11.909 11.9543H9.57568C9.36735 11.9543 9.20068 12.121 9.20068 12.3293V16.246H12.2423V12.3293C12.2423 12.121 12.0757 11.9543 11.909 11.9543Z" stroke="#45413C" stroke-width="0.5" stroke-miterlimit="10" stroke-linecap="round" stroke-linejoin="round"/>
<path d="M15.1173 14.121H13.7007C13.4924 14.121 13.3257 13.9543 13.3257 13.746V12.3293C13.3257 12.121 13.4924 11.9543 13.7007 11.9543H15.1173C15.3257 11.9543 15.4924 12.121 15.4924 12.3293V13.746C15.4507 13.9543 15.3257 14.121 15.1173 14.121Z" fill="#00B8F0"/>
<path d="M15.1173 11.9543H13.7007C13.4924 11.9543 13.3257 12.121 13.3257 12.3293V13.746C13.3257 13.9543 13.4924 14.121 13.7007 14.121H13.9507L15.2007 11.996C15.159 11.996 15.1173 11.9543 15.1173 11.9543Z" fill="#4ACFFF"/>
<path d="M11.1597 14.2874H10.2847C10.0763 14.2874 9.90967 14.1207 9.90967 13.9124V13.0374C9.90967 12.829 10.0763 12.6624 10.2847 12.6624H11.1597C11.368 12.6624 11.5347 12.829 11.5347 13.0374V13.9124C11.5347 14.1207 11.368 14.2874 11.1597 14.2874Z" fill="#00B8F0"/>
<path d="M11.1597 12.6624H10.2847C10.0763 12.6624 9.90967 12.829 9.90967 13.0374V13.9124C9.90967 14.1207 10.0763 14.2874 10.2847 14.2874H10.368L11.2847 12.704C11.243 12.704 11.2013 12.6624 11.1597 12.6624Z" fill="#4ACFFF"/>
<path d="M15.1173 14.121H13.7007C13.4924 14.121 13.3257 13.9543 13.3257 13.746V12.3293C13.3257 12.121 13.4924 11.9543 13.7007 11.9543H15.1173C15.3257 11.9543 15.4924 12.121 15.4924 12.3293V13.746C15.4507 13.9543 15.3257 14.121 15.1173 14.121Z" stroke="#45413C" stroke-width="0.5" stroke-miterlimit="10" stroke-linecap="round" stroke-linejoin="round"/>
<path d="M11.1597 14.2874H10.2847C10.0763 14.2874 9.90967 14.1207 9.90967 13.9124V13.0374C9.90967 12.829 10.0763 12.6624 10.2847 12.6624H11.1597C11.368 12.6624 11.5347 12.829 11.5347 13.0374V13.9124C11.5347 14.1207 11.368 14.2874 11.1597 14.2874Z" stroke="#45413C" stroke-width="0.5" stroke-miterlimit="10" stroke-linecap="round" stroke-linejoin="round"/>
<path d="M19.5763 17.163C19.7847 16.9963 19.9513 16.7463 19.9513 16.4547C19.9513 15.9547 19.5347 15.5797 19.0763 15.5797C18.868 15.5797 18.6597 15.663 18.493 15.788C18.3263 15.038 17.7013 14.4963 16.9097 14.4963C16.0347 14.4963 15.2847 15.2047 15.2847 16.1213C15.2847 16.538 15.4513 16.913 15.7013 17.2047H19.5763V17.163Z" fill="#FFBA08"/>
<path d="M16.909 15.2037C17.7007 15.2037 18.3257 15.7454 18.4924 16.4954C18.659 16.3704 18.8257 16.287 19.0757 16.287C19.4507 16.287 19.7424 16.4954 19.909 16.8287C19.9507 16.7037 19.9924 16.6204 19.9924 16.4537C19.9924 15.9537 19.5757 15.5787 19.1174 15.5787C18.909 15.5787 18.7007 15.662 18.534 15.787C18.3674 15.037 17.7424 14.4954 16.9507 14.4954C16.0757 14.4954 15.3257 15.2037 15.3257 16.1204C15.3257 16.2454 15.3257 16.3704 15.3674 16.4954C15.4924 15.7454 16.1173 15.2037 16.909 15.2037Z" fill="#DFA206"/>
<path d="M19.5763 17.163C19.7847 16.9963 19.9513 16.7463 19.9513 16.4547C19.9513 15.9547 19.5347 15.5797 19.0763 15.5797C18.868 15.5797 18.6597 15.663 18.493 15.788C18.3263 15.038 17.7013 14.4963 16.9097 14.4963C16.0347 14.4963 15.2847 15.2047 15.2847 16.1213C15.2847 16.538 15.4513 16.913 15.7013 17.2047H19.5763V17.163Z" stroke="#45413C" stroke-width="0.5" stroke-miterlimit="10" stroke-linecap="round" stroke-linejoin="round"/>
</g>
<defs>
<clipPath id="clip0_58_2302">
<rect width="20" height="20" fill="white" transform="translate(0.616699 0.953369)"/>
</clipPath>
</defs>
</svg>
