<svg width="69" height="23" viewBox="0 0 69 23" fill="none" xmlns="http://www.w3.org/2000/svg">
<path d="M12.7437 6.59375H8.93956L6.37189 11.3488L3.80412 6.59375H0V14.9152H3.0908V10.9565L5.36137 14.9152H7.3823L9.65287 10.9565V14.9152H12.7437V6.59375Z" fill="black"/>
<path d="M21.0651 14.9152H24.4651L21.0176 6.59375H16.4289L12.9814 14.9152H16.3813L16.9519 13.4173H20.4945L21.0651 14.9152ZM17.7603 11.2775L18.7233 8.73357L19.6862 11.2775H17.7603Z" fill="black"/>
<path d="M32.9056 6.59375H22.6821V9.20902H26.2485V14.9152H29.3393V9.20902H32.9056V6.59375Z" fill="black"/>
<path d="M42.9864 9.77964C42.9864 7.92518 41.6906 6.59375 39.8005 6.59375H33.2622V14.9152H36.353V12.9656H38.1718L39.3249 14.9152H42.9864L41.5124 12.5257C42.4277 11.9908 42.9864 10.9922 42.9864 9.77964ZM36.353 9.20902H39.2061C39.5152 9.20902 39.8956 9.20902 39.8956 9.77964C39.8956 10.3503 39.5152 10.3503 39.2061 10.3503H36.353V9.20902Z" fill="black"/>
<path d="M46.4341 6.59375H43.3433V14.9152H46.4341V6.59375Z" fill="black"/>
<path d="M0 17.7502C0 18.8013 0.568581 19.3054 1.89545 19.3054C3.10595 19.3054 3.73059 18.8789 3.77798 17.9225H2.63207C2.58905 18.2112 2.36933 18.3576 1.89545 18.3576C1.23634 18.3576 1.11998 18.0733 1.11998 17.7502C1.11998 17.4314 1.23197 17.1514 1.89545 17.1514C2.36933 17.1514 2.58905 17.2936 2.63207 17.5779H3.77798C3.73059 16.6258 3.10168 16.2036 1.89545 16.2036C0.568581 16.2036 0 16.7033 0 17.7502Z" fill="black"/>
<path d="M6.40595 19.2621H7.63801L6.38866 16.2466H4.72582L3.47656 19.2621H4.70853L4.91532 18.7194H6.19916L6.40595 19.2621ZM5.20826 17.9439L5.55724 17.022L5.90622 17.9439H5.20826Z" fill="black"/>
<path d="M12.3422 16.2466H10.9637L10.0331 17.9697L9.10266 16.2466H7.72412V19.2621H8.8442V17.8275L9.66697 19.2621H10.3993L11.2222 17.8275V19.2621H12.3422V16.2466Z" fill="black"/>
<path d="M14.884 16.2466H12.5146V19.2621H13.6347V18.5556H14.884C15.5689 18.5556 16.0385 18.0732 16.0385 17.4011C16.0385 16.729 15.5689 16.2466 14.884 16.2466ZM14.6687 17.6078H13.6347V17.1944H14.6687C14.7806 17.1944 14.9185 17.1944 14.9185 17.4011C14.9185 17.6078 14.7806 17.6078 14.6687 17.6078Z" fill="black"/>
<path d="M19.9585 17.75V16.2466H18.8384V17.75C18.8384 18.0688 18.722 18.3575 18.0629 18.3575C17.4038 18.3575 17.2876 18.0732 17.2876 17.75V16.2466H16.1675V17.75C16.1675 18.8011 16.7362 19.3052 18.0629 19.3052C19.3855 19.3052 19.9585 18.7969 19.9585 17.75Z" fill="black"/>
<path d="M20.0879 18.1982C20.0879 19.0942 20.7771 19.3054 22.0135 19.3054C23.2499 19.3054 23.9391 19.0942 23.9391 18.2628C23.9391 17.4745 23.2025 17.3927 22.0135 17.3453C21.3587 17.3194 21.251 17.3237 21.251 17.2074C21.251 17.0911 21.3587 17.0652 21.8843 17.0652C22.4314 17.0652 22.6899 17.0997 22.6899 17.2591H23.8099C23.8099 16.488 23.1465 16.2036 21.9704 16.2036C20.7814 16.2036 20.1309 16.488 20.1309 17.1514C20.1309 17.8536 20.6522 18.0776 22.0135 18.1206C22.72 18.1422 22.819 18.1595 22.819 18.2887C22.819 18.4006 22.72 18.4438 22.0566 18.4438C21.3458 18.4438 21.2079 18.3447 21.2079 18.1982H20.0879Z" fill="black"/>
<path fill-rule="evenodd" clip-rule="evenodd" d="M52.8393 11.536C53.1082 11.5233 54.1606 12.8377 54.6071 13.2446L57.1464 15.8894C57.3054 16.0751 57.2931 16.0043 57.2461 16.2028C57.8109 16.2266 58.4018 17.555 58.9376 17.6985L68.5499 17.7093C68.4733 17.4906 65.546 14.6588 65.3012 14.4182L62.8089 11.9542C62.2155 11.357 62.0809 11.4639 62.0444 10.9863C61.9054 11.1071 61.8629 10.885 61.9215 11.1295C61.8142 10.7928 61.9416 11.0651 61.6669 10.8259L60.8283 10.0011C60.6015 9.77048 60.4931 9.70998 60.259 9.46735L59.1616 8.36009C58.9146 8.15612 58.8299 8.04598 58.622 7.80899C58.4788 7.64581 58.2216 7.42854 58.0555 7.27556C57.8341 7.07179 57.5619 6.93872 57.698 6.59236L57.4172 6.67026C57.1414 6.29476 56.4489 5.68383 56.0755 5.3228C55.6268 4.88903 55.188 4.43155 54.7004 3.94737C53.7833 3.0366 52.8927 2.14915 51.9307 1.21186C51.6696 0.957484 51.5322 0.813536 51.2597 0.546726C50.989 0.281566 50.8991 0.043604 50.3396 0.0331142C48.8158 0.0043643 42.9086 -0.0372053 42.0791 0.0658474L52.5383 11.0581C52.8175 11.3366 52.7759 11.3289 52.8393 11.536Z" fill="#3299FE"/>
<path fill-rule="evenodd" clip-rule="evenodd" d="M57.2464 16.203C57.2934 16.0045 57.3056 16.0753 57.1466 15.8897L54.6073 13.2448C54.1608 12.8379 53.1085 11.5235 52.8396 11.5362C52.667 11.5739 47.5519 16.8414 47.2287 17.1606L41.6089 22.932C42.9378 23.0667 47.9813 22.9606 49.941 22.9551C51.4233 22.9508 51.0966 22.8749 51.8694 22.0359L57.2464 16.203Z" fill="#3299FE"/>
<path fill-rule="evenodd" clip-rule="evenodd" d="M57.6981 6.59261C57.5621 6.93897 57.8343 7.07203 58.0557 7.27581C58.2217 7.42878 58.4789 7.64606 58.6222 7.80923C58.8301 8.04623 58.9148 8.15637 59.1618 8.36034L60.2592 9.4676C60.4933 9.71022 60.6017 9.77073 60.8285 10.0013L61.6671 10.8261C61.9418 11.0654 61.8143 10.793 61.9217 11.1297C61.8631 10.8853 61.9056 11.1073 62.0446 10.9866C62.2592 10.9355 62.5001 10.5552 62.6814 10.3595L67.3575 5.29275L58.9047 5.27002L57.6981 6.59261Z" fill="#3299FE"/>
<path d="M12.7437 6.59375H8.93956L6.37189 11.3488L3.80412 6.59375H0V14.9152H3.0908V10.9565L5.36137 14.9152H7.3823L9.65287 10.9565V14.9152H12.7437V6.59375Z" fill="#FEFEFE"/>
<path d="M21.0651 14.9152H24.4651L21.0176 6.59375H16.4289L12.9814 14.9152H16.3813L16.9519 13.4173H20.4945L21.0651 14.9152ZM17.7603 11.2775L18.7233 8.73357L19.6862 11.2775H17.7603Z" fill="#FEFEFE"/>
<path d="M32.9056 6.59375H22.6821V9.20902H26.2485V14.9152H29.3393V9.20902H32.9056V6.59375Z" fill="#FEFEFE"/>
<path d="M42.9864 9.77964C42.9864 7.92518 41.6906 6.59375 39.8005 6.59375H33.2622V14.9152H36.353V12.9656H38.1718L39.3249 14.9152H42.9864L41.5124 12.5257C42.4277 11.9908 42.9864 10.9922 42.9864 9.77964ZM36.353 9.20902H39.2061C39.5152 9.20902 39.8956 9.20902 39.8956 9.77964C39.8956 10.3503 39.5152 10.3503 39.2061 10.3503H36.353V9.20902Z" fill="#FEFEFE"/>
<path d="M46.4341 6.59375H43.3433V14.9152H46.4341V6.59375Z" fill="#FEFEFE"/>
<path d="M0 17.7502C0 18.8013 0.568581 19.3054 1.89545 19.3054C3.10595 19.3054 3.73059 18.8789 3.77798 17.9225H2.63207C2.58905 18.2112 2.36933 18.3576 1.89545 18.3576C1.23634 18.3576 1.11998 18.0733 1.11998 17.7502C1.11998 17.4314 1.23197 17.1514 1.89545 17.1514C2.36933 17.1514 2.58905 17.2936 2.63207 17.5779H3.77798C3.73059 16.6258 3.10168 16.2036 1.89545 16.2036C0.568581 16.2036 0 16.7033 0 17.7502Z" fill="#FEFEFE"/>
<path d="M6.40595 19.2621H7.63801L6.38866 16.2466H4.72582L3.47656 19.2621H4.70853L4.91532 18.7194H6.19916L6.40595 19.2621ZM5.20826 17.9439L5.55724 17.022L5.90622 17.9439H5.20826Z" fill="#FEFEFE"/>
<path d="M12.3422 16.2466H10.9637L10.0331 17.9697L9.10266 16.2466H7.72412V19.2621H8.8442V17.8275L9.66697 19.2621H10.3993L11.2222 17.8275V19.2621H12.3422V16.2466Z" fill="#FEFEFE"/>
<path d="M14.884 16.2466H12.5146V19.2621H13.6347V18.5556H14.884C15.5689 18.5556 16.0385 18.0732 16.0385 17.4011C16.0385 16.729 15.5689 16.2466 14.884 16.2466ZM14.6687 17.6078H13.6347V17.1944H14.6687C14.7806 17.1944 14.9185 17.1944 14.9185 17.4011C14.9185 17.6078 14.7806 17.6078 14.6687 17.6078Z" fill="#FEFEFE"/>
<path d="M19.9585 17.75V16.2466H18.8384V17.75C18.8384 18.0688 18.722 18.3575 18.0629 18.3575C17.4038 18.3575 17.2876 18.0732 17.2876 17.75V16.2466H16.1675V17.75C16.1675 18.8011 16.7362 19.3052 18.0629 19.3052C19.3855 19.3052 19.9585 18.7969 19.9585 17.75Z" fill="#FEFEFE"/>
<path d="M20.0879 18.1982C20.0879 19.0942 20.7771 19.3054 22.0135 19.3054C23.2499 19.3054 23.9391 19.0942 23.9391 18.2628C23.9391 17.4745 23.2025 17.3927 22.0135 17.3453C21.3587 17.3194 21.251 17.3237 21.251 17.2074C21.251 17.0911 21.3587 17.0652 21.8843 17.0652C22.4314 17.0652 22.6899 17.0997 22.6899 17.2591H23.8099C23.8099 16.488 23.1465 16.2036 21.9704 16.2036C20.7814 16.2036 20.1309 16.488 20.1309 17.1514C20.1309 17.8536 20.6522 18.0776 22.0135 18.1206C22.72 18.1422 22.819 18.1595 22.819 18.2887C22.819 18.4006 22.72 18.4438 22.0566 18.4438C21.3458 18.4438 21.2079 18.3447 21.2079 18.1982H20.0879Z" fill="#FEFEFE"/>
<path fill-rule="evenodd" clip-rule="evenodd" d="M52.8393 11.536C53.1082 11.5233 54.1606 12.8377 54.6071 13.2446L57.1464 15.8894C57.3054 16.0751 57.2931 16.0043 57.2461 16.2028C57.8109 16.2266 58.4018 17.555 58.9376 17.6985L68.5499 17.7093C68.4733 17.4906 65.546 14.6588 65.3012 14.4182L62.8089 11.9542C62.2155 11.357 62.0809 11.4639 62.0444 10.9863C61.9054 11.1071 61.8629 10.885 61.9215 11.1295C61.8142 10.7928 61.9416 11.0651 61.6669 10.8259L60.8283 10.0011C60.6015 9.77048 60.4931 9.70998 60.259 9.46735L59.1616 8.36009C58.9146 8.15612 58.8299 8.04598 58.622 7.80899C58.4788 7.64581 58.2216 7.42854 58.0555 7.27556C57.8341 7.07179 57.5619 6.93872 57.698 6.59236L57.4172 6.67026C57.1414 6.29476 56.4489 5.68383 56.0755 5.3228C55.6268 4.88903 55.188 4.43155 54.7004 3.94737C53.7833 3.0366 52.8927 2.14915 51.9307 1.21186C51.6696 0.957484 51.5322 0.813536 51.2597 0.546726C50.989 0.281566 50.8991 0.043604 50.3396 0.0331142C48.8158 0.0043643 42.9086 -0.0372053 42.0791 0.0658474L52.5383 11.0581C52.8175 11.3366 52.7759 11.3289 52.8393 11.536Z" fill="url(#paint0_linear_2_10854)"/>
<path fill-rule="evenodd" clip-rule="evenodd" d="M57.2464 16.203C57.2934 16.0045 57.3056 16.0753 57.1466 15.8897L54.6073 13.2448C54.1608 12.8379 53.1085 11.5235 52.8396 11.5362C52.667 11.5739 47.5519 16.8414 47.2287 17.1606L41.6089 22.932C42.9378 23.0667 47.9813 22.9606 49.941 22.9551C51.4233 22.9508 51.0966 22.8749 51.8694 22.0359L57.2464 16.203Z" fill="url(#paint1_linear_2_10854)"/>
<path fill-rule="evenodd" clip-rule="evenodd" d="M57.6981 6.59261C57.5621 6.93897 57.8343 7.07203 58.0557 7.27581C58.2217 7.42878 58.4789 7.64606 58.6222 7.80923C58.8301 8.04623 58.9148 8.15637 59.1618 8.36034L60.2592 9.4676C60.4933 9.71022 60.6017 9.77073 60.8285 10.0013L61.6671 10.8261C61.9418 11.0654 61.8143 10.793 61.9217 11.1297C61.8631 10.8853 61.9056 11.1073 62.0446 10.9866C62.2592 10.9355 62.5001 10.5552 62.6814 10.3595L67.3575 5.29275L58.9047 5.27002L57.6981 6.59261Z" fill="url(#paint2_linear_2_10854)"/>
<defs>
<linearGradient id="paint0_linear_2_10854" x1="37.7888" y1="-4.28452" x2="71.3716" y2="18.0953" gradientUnits="userSpaceOnUse">
<stop stop-color="#BD22FF"/>
<stop offset="0.506074" stop-color="#A19FFF"/>
<stop offset="1" stop-color="#FFBA08"/>
</linearGradient>
<linearGradient id="paint1_linear_2_10854" x1="39.0694" y1="8.76262" x2="60.0027" y2="21.5185" gradientUnits="userSpaceOnUse">
<stop stop-color="#BD22FF"/>
<stop offset="0.506074" stop-color="#A19FFF"/>
<stop offset="1" stop-color="#FFBA08"/>
</linearGradient>
<linearGradient id="paint2_linear_2_10854" x1="56.0902" y1="3.85234" x2="67.5936" y2="12.3385" gradientUnits="userSpaceOnUse">
<stop stop-color="#BD22FF"/>
<stop offset="0.506074" stop-color="#A19FFF"/>
<stop offset="1" stop-color="#FFBA08"/>
</linearGradient>
</defs>
</svg>
