<svg width="18" height="20" viewBox="0 0 18 20" fill="none" xmlns="http://www.w3.org/2000/svg">
<path d="M10.6831 18C10.5932 18.3396 10.4155 18.6665 10.166 18.916C9.79438 19.2876 9.25116 19.5 8.75 19.5C8.21739 19.5 7.70819 19.2901 7.33402 18.916C7.08451 18.6665 6.90676 18.3396 6.8169 18H10.6831Z" fill="#99CCFF" stroke="#99CCFF"/>
<path d="M9.5 2V2.40864L9.90046 2.48999C12.5238 3.02292 14.5 5.34415 14.5 8.12501V8.85939C14.5 10.8222 15.221 12.7095 16.5204 14.1754L16.5213 14.1765L16.809 14.4992C16.8093 14.4995 16.8095 14.4997 16.8097 14.5C17.0089 14.7259 17.0556 15.0391 16.935 15.3057C16.8123 15.5772 16.5444 15.75 16.25 15.75H1.24999C0.954848 15.75 0.686918 15.5767 0.565871 15.307C0.445429 15.0387 0.49222 14.7249 0.689863 14.4997C0.690204 14.4993 0.690546 14.499 0.690888 14.4986L0.978314 14.1769L0.979422 14.1757C2.28069 12.7094 2.99999 10.8219 2.99999 8.85939V8.12501C2.99999 5.34151 4.94352 3.023 7.59837 2.49023L8 2.40963V2V1.25C8 0.835603 8.33504 0.5 8.75 0.5C9.16496 0.5 9.5 0.835603 9.5 1.25V2Z" stroke="#99CCFF"/>
</svg>
