<svg width="21" height="21" viewBox="0 0 21 21" fill="none" xmlns="http://www.w3.org/2000/svg">
<path d="M19.6149 7.63458V14.273C19.6149 14.6651 19.4594 15.0412 19.1825 15.3187C18.9056 15.5963 18.53 15.7528 18.1379 15.7538H2.63409C1.8187 15.7538 1.15332 15.0884 1.15332 14.273V7.63458C1.15332 6.81919 1.8187 6.15381 2.63409 6.15381H18.1379C18.53 6.15483 18.9056 6.31129 19.1825 6.58887C19.4594 6.86646 19.6149 7.24252 19.6149 7.63458Z" fill="#FFBA08"/>
<path d="M19.6138 7.63458V14.273C19.6138 14.6651 19.4584 15.0412 19.1815 15.3187C18.9046 15.5963 18.529 15.7528 18.1369 15.7538H17.3369C17.729 15.7528 18.1046 15.5963 18.3815 15.3187C18.6584 15.0412 18.8138 14.6651 18.8138 14.273V7.63458C18.8138 7.24252 18.6584 6.86646 18.3815 6.58887C18.1046 6.31129 17.729 6.15483 17.3369 6.15381H18.1369C18.529 6.15483 18.9046 6.31129 19.1815 6.58887C19.4584 6.86646 19.6138 7.24252 19.6138 7.63458Z" fill="#B78400"/>
<path d="M10.6072 7.63458V14.273C10.6072 14.6651 10.4517 15.0412 10.1748 15.3187C9.89795 15.5963 9.5223 15.7528 9.13024 15.7538H2.63409C1.8187 15.7538 1.15332 15.0884 1.15332 14.273V7.63458C1.15332 6.81919 1.8187 6.15381 2.63409 6.15381H9.13024C9.5223 6.15483 9.89795 6.31129 10.1748 6.58887C10.4517 6.86646 10.6072 7.24252 10.6072 7.63458Z" fill="#F1B519"/>
<path d="M14.8686 7.89491V14.0122C14.8686 14.105 14.8504 14.1969 14.8148 14.2827C14.7793 14.3684 14.7272 14.4463 14.6616 14.512C14.5959 14.5776 14.518 14.6296 14.4322 14.6651C14.3465 14.7006 14.2545 14.7188 14.1617 14.7188H6.60634C6.51352 14.7188 6.4216 14.7006 6.33584 14.6651C6.25007 14.6296 6.17214 14.5776 6.10649 14.512C6.04084 14.4463 5.98876 14.3684 5.95323 14.2827C5.9177 14.1969 5.89941 14.105 5.89941 14.0122V7.89491C5.89941 7.50453 6.21595 7.18799 6.60634 7.18799H14.1617C14.5521 7.18799 14.8686 7.50453 14.8686 7.89491Z" fill="#D7ECF9"/>
<path d="M14.8686 7.89642V9.30796L5.89551 13.0187V7.89603C5.89551 7.50373 6.21282 7.18604 6.60551 7.18604H14.159C14.5513 7.18604 14.869 7.50334 14.869 7.89603L14.8686 7.89642Z" fill="#E6F5FC"/>
<path d="M5.26417 10.7438V11.1634C5.26417 11.21 5.24566 11.2547 5.21269 11.2877C5.17973 11.3206 5.13502 11.3391 5.0884 11.3391H4.14687V12.2807C4.14687 12.3273 4.12835 12.372 4.09538 12.405C4.06242 12.4379 4.01771 12.4565 3.9711 12.4565H3.55148C3.50486 12.4565 3.46016 12.4379 3.42719 12.405C3.39423 12.372 3.37571 12.3273 3.37571 12.2807V11.3391H2.43456C2.38794 11.3391 2.34323 11.3206 2.31027 11.2877C2.27731 11.2547 2.25879 11.21 2.25879 11.1634V10.7438C2.25879 10.6465 2.33764 10.568 2.43456 10.568H3.3761V9.62645C3.3761 9.52914 3.45494 9.45068 3.55187 9.45068H3.97148C4.0684 9.45068 4.14725 9.52914 4.14725 9.62645V10.568H5.08879C5.18571 10.568 5.26417 10.6465 5.26417 10.7438Z" fill="#77C0ED"/>
<path d="M4.1145 7.88342C4.1145 8.29496 3.77834 8.62573 3.37219 8.62573C2.96604 8.62573 2.62988 8.29496 2.62988 7.88342C2.62988 7.68655 2.70809 7.49774 2.8473 7.35853C2.98651 7.21932 3.17532 7.14111 3.37219 7.14111C3.56906 7.14111 3.75787 7.21932 3.89708 7.35853C4.03629 7.49774 4.1145 7.68655 4.1145 7.88342Z" fill="#E24740"/>
<path d="M18.1383 7.88342C18.1383 8.29496 17.8022 8.62573 17.396 8.62573C16.9899 8.62573 16.6533 8.29496 16.6533 7.88342C16.6533 7.68655 16.7315 7.49774 16.8707 7.35853C17.0099 7.21932 17.1988 7.14111 17.3956 7.14111C17.5925 7.14111 17.7813 7.21932 17.9205 7.35853C18.0597 7.49774 18.1383 7.68655 18.1383 7.88342Z" fill="white"/>
<path d="M16.2516 11.3057C16.2516 11.4564 16.1917 11.601 16.0851 11.7076C15.9785 11.8142 15.8339 11.8741 15.6831 11.8741C15.5323 11.8741 15.3877 11.8142 15.2811 11.7076C15.1745 11.601 15.1146 11.4564 15.1146 11.3057C15.1118 11.2293 15.1245 11.1531 15.1518 11.0816C15.1791 11.0102 15.2205 10.945 15.2735 10.89C15.3266 10.8349 15.3902 10.7911 15.4606 10.7612C15.531 10.7313 15.6066 10.7159 15.6831 10.7159C15.7596 10.7159 15.8352 10.7313 15.9056 10.7612C15.976 10.7911 16.0396 10.8349 16.0927 10.89C16.1457 10.945 16.1872 11.0102 16.2145 11.0816C16.2418 11.1531 16.2544 11.2293 16.2516 11.3057ZM18.4985 11.3057C18.4985 11.4564 18.4386 11.601 18.332 11.7076C18.2254 11.8142 18.0808 11.8741 17.93 11.8741C17.7793 11.8741 17.6347 11.8142 17.5281 11.7076C17.4215 11.601 17.3616 11.4564 17.3616 11.3057C17.3588 11.2293 17.3714 11.1531 17.3987 11.0816C17.426 11.0102 17.4674 10.945 17.5205 10.89C17.5735 10.8349 17.6371 10.7911 17.7075 10.7612C17.7779 10.7313 17.8536 10.7159 17.93 10.7159C18.0065 10.7159 18.0822 10.7313 18.1525 10.7612C18.2229 10.7911 18.2865 10.8349 18.3396 10.89C18.3927 10.945 18.4341 11.0102 18.4614 11.0816C18.4887 11.1531 18.5013 11.2293 18.4985 11.3057ZM16.805 10.7491C16.6543 10.7491 16.5097 10.6892 16.4031 10.5826C16.2965 10.476 16.2366 10.3314 16.2366 10.1807C16.2366 10.0299 16.2965 9.88531 16.4031 9.7787C16.5097 9.67209 16.6543 9.6122 16.805 9.6122C16.8814 9.60939 16.9576 9.62201 17.0291 9.64931C17.1005 9.67662 17.1657 9.71804 17.2207 9.7711C17.2758 9.82416 17.3196 9.88778 17.3495 9.95815C17.3794 10.0285 17.3948 10.1042 17.3948 10.1807C17.3948 10.2571 17.3794 10.3328 17.3495 10.4032C17.3196 10.4735 17.2758 10.5372 17.2207 10.5902C17.1657 10.6433 17.1005 10.6847 17.0291 10.712C16.9576 10.7393 16.8814 10.7519 16.805 10.7491ZM16.805 12.996C16.6543 12.996 16.5097 12.9362 16.4031 12.8295C16.2965 12.7229 16.2366 12.5784 16.2366 12.4276C16.2366 12.2768 16.2965 12.1322 16.4031 12.0256C16.5097 11.919 16.6543 11.8591 16.805 11.8591C16.8814 11.8563 16.9576 11.8689 17.0291 11.8962C17.1005 11.9235 17.1657 11.965 17.2207 12.018C17.2758 12.0711 17.3196 12.1347 17.3495 12.2051C17.3794 12.2754 17.3948 12.3511 17.3948 12.4276C17.3948 12.504 17.3794 12.5797 17.3495 12.6501C17.3196 12.7205 17.2758 12.7841 17.2207 12.8371C17.1657 12.8902 17.1005 12.9316 17.0291 12.9589C16.9576 12.9862 16.8814 12.9989 16.805 12.996Z" fill="#4DB485"/>
</svg>
