<svg width="21" height="21" viewBox="0 0 21 21" fill="none" xmlns="http://www.w3.org/2000/svg">
<g clip-path="url(#clip0_2_10784)">
<path d="M11.3446 12.3813H10.3828V14.8836H11.3446V12.3813Z" fill="#544966"/>
<path d="M18.3461 14.1704H3.37991C2.39343 14.1704 1.59375 14.9704 1.59375 15.9566V16.2182C1.59375 16.2902 1.62235 16.3592 1.67325 16.4101C1.72416 16.461 1.7932 16.4896 1.86519 16.4896H19.8609C19.9329 16.4896 20.0019 16.461 20.0528 16.4101C20.1037 16.3592 20.1323 16.2902 20.1323 16.2182V15.9566C20.1323 14.9702 19.3326 14.1704 18.3461 14.1704Z" fill="white"/>
<path d="M18.6873 12.8168H18.7753C18.7753 12.7252 18.7732 12.6342 18.7688 12.5437C18.6999 11.0693 18.0737 9.74059 17.0963 8.76331C16.0587 7.72587 14.6252 7.08419 13.0425 7.08419H11.5612V6.47019C11.5612 6.33658 11.5104 6.20796 11.4192 6.11035C11.3279 6.01274 11.203 5.95344 11.0697 5.94443V5.58819H11.3977C11.4411 5.58817 11.4826 5.57093 11.5133 5.54027C11.5439 5.5096 11.5612 5.46803 11.5612 5.42467C11.5612 5.40321 11.5569 5.38195 11.5487 5.36212C11.5405 5.3423 11.5285 5.32428 11.5133 5.3091C11.4981 5.29392 11.4801 5.28189 11.4603 5.27367C11.4404 5.26546 11.4192 5.26123 11.3977 5.26123H10.3329C10.3114 5.26119 10.2901 5.26539 10.2703 5.27358C10.2504 5.28177 10.2324 5.29381 10.2171 5.30899C10.2019 5.32417 10.1899 5.3422 10.1816 5.36205C10.1734 5.3819 10.1692 5.40318 10.1692 5.42467C10.1692 5.46803 10.1864 5.5096 10.217 5.54027C10.2477 5.57093 10.2892 5.58817 10.3326 5.58819H10.6606V5.94443C10.5273 5.95344 10.4024 6.01274 10.3112 6.11035C10.2199 6.20796 10.1692 6.33658 10.1692 6.47019V7.08419H8.68772C8.04498 7.08348 7.40671 7.19107 6.79972 7.40243C4.56116 8.18283 2.95516 10.3124 2.95516 12.8168H3.04316C2.95541 12.8168 2.86851 12.8341 2.78744 12.8677C2.70637 12.9013 2.63271 12.9506 2.57067 13.0126C2.50862 13.0747 2.45941 13.1483 2.42584 13.2294C2.39226 13.3105 2.37499 13.3974 2.375 13.4851V13.6406C2.375 13.6724 2.38764 13.7029 2.41015 13.7254C2.43265 13.7479 2.46317 13.7606 2.495 13.7606H19.2353C19.2671 13.7606 19.2977 13.7479 19.3202 13.7254C19.3427 13.7029 19.3553 13.6724 19.3553 13.6406V13.4851C19.3553 13.308 19.2849 13.138 19.1597 13.0127C19.0344 12.8874 18.8645 12.8169 18.6873 12.8168Z" fill="#FFBA08"/>
<path d="M8.04308 12.8172H2.95508C2.95508 10.3128 4.56124 8.18323 6.79964 7.40283C3.52612 9.38803 4.08076 12.5469 4.08076 12.5469L8.04308 12.8172ZM18.7747 12.8172H14.9937L18.7682 12.5441C18.7725 12.6346 18.7747 12.7257 18.7747 12.8172Z" fill="#FFB243"/>
</g>
<defs>
<clipPath id="clip0_2_10784">
<rect width="20" height="20" fill="white" transform="translate(0.5 0.953613)"/>
</clipPath>
</defs>
</svg>
